<svg width="50" height="50" viewBox="0 0 50 50" fill="none" xmlns="http://www.w3.org/2000/svg">
<mask id="mask0_287_5325" style="mask-type:alpha" maskUnits="userSpaceOnUse" x="0" y="0" width="50" height="50">
<rect width="50" height="50" fill="#D9D9D9"/>
</mask>
<g mask="url(#mask0_287_5325)">
<path d="M25 43.75C19.7569 43.75 15.3212 42.9427 11.6927 41.3281C8.06424 39.7135 6.25 37.7431 6.25 35.4167V14.5833C6.25 12.2917 8.0816 10.3299 11.7448 8.69792C15.408 7.06597 19.8264 6.25 25 6.25C30.1736 6.25 34.592 7.06597 38.2552 8.69792C41.9184 10.3299 43.75 12.2917 43.75 14.5833V35.4167C43.75 37.7431 41.9358 39.7135 38.3073 41.3281C34.6788 42.9427 30.2431 43.75 25 43.75ZM25 18.8021C28.0903 18.8021 31.1979 18.3594 34.3229 17.474C37.4479 16.5885 39.2014 15.6424 39.5833 14.6354C39.2014 13.6285 37.4566 12.6736 34.349 11.7708C31.2413 10.8681 28.125 10.4167 25 10.4167C21.8403 10.4167 18.7413 10.8594 15.7031 11.7448C12.6649 12.6302 10.9028 13.5938 10.4167 14.6354C10.9028 15.6771 12.6649 16.6319 15.7031 17.5C18.7413 18.3681 21.8403 18.8021 25 18.8021ZM25 29.1667C26.4583 29.1667 27.8646 29.0972 29.2188 28.9583C30.5729 28.8194 31.8663 28.6198 33.099 28.3594C34.3316 28.099 35.4948 27.7778 36.5885 27.3958C37.6823 27.0139 38.6806 26.5799 39.5833 26.0938V19.8438C38.6806 20.3299 37.6823 20.7639 36.5885 21.1458C35.4948 21.5278 34.3316 21.849 33.099 22.1094C31.8663 22.3698 30.5729 22.5694 29.2188 22.7083C27.8646 22.8472 26.4583 22.9167 25 22.9167C23.5417 22.9167 22.1181 22.8472 20.7292 22.7083C19.3403 22.5694 18.0295 22.3698 16.7969 22.1094C15.5642 21.849 14.4097 21.5278 13.3333 21.1458C12.2569 20.7639 11.2847 20.3299 10.4167 19.8438V26.0938C11.2847 26.5799 12.2569 27.0139 13.3333 27.3958C14.4097 27.7778 15.5642 28.099 16.7969 28.3594C18.0295 28.6198 19.3403 28.8194 20.7292 28.9583C22.1181 29.0972 23.5417 29.1667 25 29.1667ZM25 39.5833C26.5972 39.5833 28.2205 39.4618 29.8698 39.2188C31.5191 38.9757 33.0382 38.6545 34.4271 38.2552C35.816 37.8559 36.9792 37.4045 37.9167 36.901C38.8542 36.3976 39.4097 35.8854 39.5833 35.3646V30.2604C38.6806 30.7465 37.6823 31.1806 36.5885 31.5625C35.4948 31.9444 34.3316 32.2656 33.099 32.526C31.8663 32.7865 30.5729 32.9861 29.2188 33.125C27.8646 33.2639 26.4583 33.3333 25 33.3333C23.5417 33.3333 22.1181 33.2639 20.7292 33.125C19.3403 32.9861 18.0295 32.7865 16.7969 32.526C15.5642 32.2656 14.4097 31.9444 13.3333 31.5625C12.2569 31.1806 11.2847 30.7465 10.4167 30.2604V35.4167C10.5903 35.9375 11.1372 36.441 12.0573 36.9271C12.9774 37.4132 14.1319 37.8559 15.5208 38.2552C16.9097 38.6545 18.4375 38.9757 20.1042 39.2188C21.7708 39.4618 23.4028 39.5833 25 39.5833Z" fill="white"/>
</g>
</svg>
