<svg width="50" height="50" viewBox="0 0 50 50" fill="none" xmlns="http://www.w3.org/2000/svg">
<mask id="mask0_287_5331" style="mask-type:alpha" maskUnits="userSpaceOnUse" x="0" y="0" width="50" height="50">
<rect width="50" height="50" fill="#D9D9D9"/>
</mask>
<g mask="url(#mask0_287_5331)">
<path d="M10.4167 43.75C9.27083 43.75 8.28993 43.342 7.47396 42.526C6.65799 41.7101 6.25 40.7292 6.25 39.5833V10.4167C6.25 9.27083 6.65799 8.28993 7.47396 7.47396C8.28993 6.65799 9.27083 6.25 10.4167 6.25H39.5833C40.7292 6.25 41.7101 6.65799 42.526 7.47396C43.342 8.28993 43.75 9.27083 43.75 10.4167V39.5833C43.75 40.7292 43.342 41.7101 42.526 42.526C41.7101 43.342 40.7292 43.75 39.5833 43.75H10.4167ZM10.4167 39.5833H39.5833V10.4167H10.4167V39.5833ZM16.6667 20.8333C16.0764 20.8333 15.5816 21.033 15.1823 21.4323C14.783 21.8316 14.5833 22.3264 14.5833 22.9167V33.3333C14.5833 33.9236 14.783 34.4184 15.1823 34.8177C15.5816 35.217 16.0764 35.4167 16.6667 35.4167C17.2569 35.4167 17.7517 35.217 18.151 34.8177C18.5503 34.4184 18.75 33.9236 18.75 33.3333V22.9167C18.75 22.3264 18.5503 21.8316 18.151 21.4323C17.7517 21.033 17.2569 20.8333 16.6667 20.8333ZM25 14.5833C24.4097 14.5833 23.9149 14.783 23.5156 15.1823C23.1163 15.5816 22.9167 16.0764 22.9167 16.6667V33.3333C22.9167 33.9236 23.1163 34.4184 23.5156 34.8177C23.9149 35.217 24.4097 35.4167 25 35.4167C25.5903 35.4167 26.0851 35.217 26.4844 34.8177C26.8837 34.4184 27.0833 33.9236 27.0833 33.3333V16.6667C27.0833 16.0764 26.8837 15.5816 26.4844 15.1823C26.0851 14.783 25.5903 14.5833 25 14.5833ZM33.3333 27.0833C32.7431 27.0833 32.2483 27.283 31.849 27.6823C31.4497 28.0816 31.25 28.5764 31.25 29.1667V33.3333C31.25 33.9236 31.4497 34.4184 31.849 34.8177C32.2483 35.217 32.7431 35.4167 33.3333 35.4167C33.9236 35.4167 34.4184 35.217 34.8177 34.8177C35.217 34.4184 35.4167 33.9236 35.4167 33.3333V29.1667C35.4167 28.5764 35.217 28.0816 34.8177 27.6823C34.4184 27.283 33.9236 27.0833 33.3333 27.0833Z" fill="white"/>
</g>
</svg>
