<svg width="67" height="66" viewBox="0 0 67 66" fill="none" xmlns="http://www.w3.org/2000/svg">
<path d="M3.7469 40.8471C3.2195 41.3773 3.22182 42.2347 3.75209 42.7621C4.28236 43.2895 5.13976 43.2872 5.66716 42.7569L3.7469 40.8471ZM66.9987 11.3333L51.8247 15.1084L62.681 26.3619L66.9987 11.3333ZM37.2874 38.0105L36.2624 38.8955L37.2874 38.0105ZM22.8693 23.541L21.9092 22.5861L22.8693 23.541ZM24.8544 23.611L25.8794 22.726L24.8544 23.611ZM4.70703 41.802L5.66716 42.7569L23.8294 24.496L22.8693 23.541L21.9092 22.5861L3.7469 40.8471L4.70703 41.802ZM24.8544 23.611L23.8294 24.496L36.2624 38.8955L37.2874 38.0105L38.3124 37.1255L25.8794 22.726L24.8544 23.611ZM39.2526 38.1001L40.1928 39.0747L59.1676 20.7695L58.2274 19.7949L57.2872 18.8204L38.3124 37.1255L39.2526 38.1001ZM37.2874 38.0105L36.2624 38.8955C37.2784 40.0721 39.074 40.154 40.1928 39.0747L39.2526 38.1001L38.3124 37.1255L37.2874 38.0105ZM22.8693 23.541L23.8294 24.496L24.8544 23.611L25.8794 22.726C24.849 21.5326 23.021 21.4682 21.9092 22.5861L22.8693 23.541Z" fill="#FF7F00"/>
<path d="M2 54.6666H64.2917" stroke="#FF7F00" stroke-width="2.70833" stroke-linecap="round"/>
</svg>
