<svg width="66" height="68" viewBox="0 0 66 68" fill="none" xmlns="http://www.w3.org/2000/svg">
<path d="M1 66.5H17.3333V60.8333C17.3333 60.097 17.9303 59.5 18.6667 59.5H34.6667V53.5C34.6667 52.7636 35.2636 52.1667 36 52.1667H48.6667V45.5H66" stroke="#FF7F00" stroke-width="2"/>
<circle cx="10.0013" cy="22.8333" r="6.55208" stroke="#FF7F00" stroke-width="2.4375"/>
<circle cx="46.6654" cy="8.16659" r="6.55208" stroke="#FF7F00" stroke-width="2.4375"/>
<path d="M6.33203 65.5002V40.8335" stroke="#FF7F00" stroke-width="2.4375"/>
<path d="M12.3359 65.5001V51.5001C12.3359 50.7637 12.9329 50.1667 13.6693 50.1667H19.3359C20.0723 50.1667 20.6693 50.7637 20.6693 51.5001V58.5001" stroke="#FF7F00" stroke-width="2.4375"/>
<path d="M6.66667 49.8333H2V36.8333C2 34.6242 3.79086 32.8333 6 32.8333H16L22.6667 35.1667L31 31.5L34.6667 24.1667L41.6667 18.1667H57.6667V6.83333M57.6667 6.83333V1.70081C57.6667 1.60545 57.7639 1.54092 57.8517 1.57793L63.7082 4.04378C63.8169 4.08959 63.8169 4.24374 63.7082 4.28955L57.6667 6.83333Z" stroke="#FF7F00" stroke-width="2.4375"/>
<path d="M57.9987 11.5H61.332C62.0684 11.5 62.6654 12.097 62.6654 12.8333V18.1667C62.6654 21.1122 60.2775 23.5 57.332 23.5H52.332V29.8333H57.332C60.2776 29.8333 62.6654 32.2211 62.6654 35.1667V45.5" stroke="#FF7F00" stroke-width="2.4375"/>
<path d="M26.6693 59.1666V48.1666C26.6693 45.9574 24.8784 44.1666 22.6693 44.1666H16.3359V38.4999L23.6693 39.8333L33.6693 34.8333L38.3359 27.4999L42.6693 24.8333V52.4999" stroke="#FF7F00" stroke-width="2.4375"/>
<path d="M48.8867 45.8334V36.8334C48.8867 36.4652 49.1852 36.1667 49.5534 36.1667H56.2201C56.5882 36.1667 56.8867 36.4652 56.8867 36.8334V45.1667" stroke="#FF7F00" stroke-width="2.4375"/>
<path d="M31 31.5L33.6667 34.8333" stroke="#FF7F00" stroke-width="2.4375"/>
</svg>
