<svg width="97" height="102" viewBox="0 0 97 102" fill="none" xmlns="http://www.w3.org/2000/svg">
<path d="M53.6289 59.5422V76.527" stroke="#FF7F00" stroke-width="3.71243" stroke-linecap="round"/>
<path d="M44.8945 59.5422V76.527" stroke="#FF7F00" stroke-width="3.71243" stroke-linecap="round"/>
<path d="M61.9844 50.0952V71.6601" stroke="#FF7F00" stroke-width="3.71243" stroke-linecap="round"/>
<path d="M84.1591 92.8104L92.3864 79.1542C94.6784 75.3498 94.9901 70.672 93.2231 66.5971L77.7229 30.8516C77.4693 30.2668 77.078 29.7521 76.5823 29.3513V29.3513C75.0008 28.0727 72.6335 29.0899 72.4726 31.1173L72.4319 31.6299C72.3942 32.1047 72.4343 32.5825 72.5507 33.0443L78.6356 57.1996C78.6603 57.2976 78.6752 57.3977 78.6801 57.4986L79.4361 73.0912" stroke="#FF7F00" stroke-width="3.71243" stroke-linecap="round"/>
<path d="M65.7901 93.7025L65.0534 87.8523C64.4997 83.4549 66.1629 79.0692 69.4934 76.1449L71.9924 73.9506V63.7407C71.9924 60.1045 74.9401 57.1567 78.5764 57.1567V57.1567" stroke="#FF7F00" stroke-width="3.71243"/>
<rect x="59.0156" y="93.511" width="30.1527" height="6.48855" rx="1.52672" stroke="#FF7F00" stroke-width="3.71243"/>
<path d="M12.88 92.0679L4.83522 79.2175C2.43432 75.3824 2.07536 70.6111 3.87541 66.46L19.3162 30.8516C19.5698 30.2668 19.9611 29.7521 20.4568 29.3513V29.3513C22.0383 28.0727 24.4056 29.0899 24.5665 31.1173L24.6072 31.6299C24.6448 32.1047 24.6047 32.5825 24.4884 33.0443L18.4035 57.1996C18.3788 57.2976 18.3639 57.3977 18.359 57.4986L17.603 73.0912" stroke="#FF7F00" stroke-width="3.71243" stroke-linecap="round"/>
<path d="M31.249 93.7025L31.9857 87.8523C32.5394 83.4549 30.8761 79.0692 27.5457 76.1449L25.0467 73.9506V63.7407C25.0467 60.1045 22.0989 57.1567 18.4627 57.1567V57.1567" stroke="#FF7F00" stroke-width="3.71243"/>
<rect width="30.1527" height="6.48855" rx="1.52672" transform="matrix(-1 0 0 1 38.0234 93.511)" stroke="#FF7F00" stroke-width="3.71243"/>
<path d="M35.0547 50.1909V71.7558" stroke="#FF7F00" stroke-width="3.71243" stroke-linecap="round"/>
<mask id="mask0_640_1083" style="mask-type:alpha" maskUnits="userSpaceOnUse" x="23" y="3" width="51" height="51">
<rect x="23.2734" y="3.19019" width="50.489" height="50.489" fill="#D9D9D9"/>
</mask>
<g mask="url(#mask0_640_1083)">
<path d="M46.328 47.3682C45.84 47.3682 45.4159 47.2078 45.0558 46.887C44.6957 46.5658 44.4725 46.1653 44.3863 45.6853L43.832 41.2838C43.1605 41.0815 42.4344 40.7631 41.6536 40.3287C40.8727 39.8946 40.2087 39.4295 39.6614 38.9334L35.6317 40.6648C35.1868 40.8615 34.735 40.883 34.2764 40.7295C33.8178 40.5755 33.4645 40.2842 33.2166 39.8554L30.9467 35.9477C30.6989 35.5189 30.6261 35.0712 30.7285 34.6045C30.8309 34.1378 31.0749 33.7548 31.4606 33.4554L34.9764 30.8257C34.9143 30.4456 34.8631 30.054 34.8228 29.6508C34.7822 29.2476 34.7618 28.8558 34.7618 28.4753C34.7618 28.1219 34.7822 27.7504 34.8228 27.3609C34.8631 26.971 34.9143 26.532 34.9764 26.044L31.4606 23.4143C31.0749 23.1149 30.8375 22.7252 30.7485 22.2452C30.6598 21.7652 30.7394 21.3106 30.9872 20.8815L33.2166 17.0948C33.4645 16.693 33.8178 16.4085 34.2764 16.2412C34.735 16.074 35.1868 16.0889 35.6317 16.2859L39.6209 17.9768C40.2492 17.4537 40.9288 16.9817 41.6599 16.561C42.3906 16.1402 43.1011 15.8152 43.7915 15.5859L44.3863 11.1844C44.4725 10.7044 44.6957 10.3039 45.0558 9.98269C45.4159 9.66187 45.84 9.50146 46.328 9.50146H50.7058C51.1939 9.50146 51.618 9.66187 51.9781 9.98269C52.3381 10.3039 52.5613 10.7044 52.6476 11.1844L53.2019 15.6264C54.0083 15.9097 54.7209 16.2347 55.3398 16.6015C55.9586 16.9682 56.5959 17.4267 57.2515 17.9768L61.4426 16.2859C61.8876 16.0889 62.3393 16.074 62.798 16.2412C63.2566 16.4085 63.6098 16.693 63.8577 17.0948L66.0871 20.922C66.335 21.3508 66.4077 21.7985 66.3054 22.2652C66.203 22.7319 65.959 23.1149 65.5733 23.4143L61.8955 26.1655C62.0115 26.5995 62.0764 26.998 62.0901 27.3609C62.1034 27.7234 62.11 28.0814 62.11 28.4348C62.11 28.7613 62.0965 29.1058 62.0695 29.4683C62.0426 29.8312 61.9805 30.2702 61.8834 30.7852L65.4397 33.4554C65.8254 33.7548 66.0762 34.1378 66.1923 34.6045C66.308 35.0712 66.2419 35.5189 65.994 35.9477L63.7525 39.8149C63.5046 40.244 63.1445 40.5354 62.6723 40.689C62.2003 40.8425 61.7419 40.821 61.297 40.6243L57.2515 38.8929C56.5959 39.443 55.9364 39.915 55.273 40.3087C54.6096 40.7025 53.9193 41.014 53.2019 41.2433L52.6476 45.6853C52.5613 46.1653 52.3381 46.5658 51.9781 46.887C51.618 47.2078 51.1939 47.3682 50.7058 47.3682H46.328ZM46.4132 45.2645H50.5275L51.3043 39.5682C52.3643 39.2877 53.3183 38.9027 54.1664 38.4133C55.0149 37.9238 55.8787 37.2529 56.7577 36.4005L62.0049 38.6378L64.0965 35.0615L59.4925 31.6025C59.6678 31.0037 59.7839 30.4528 59.8407 29.95C59.8971 29.4469 59.9253 28.9418 59.9253 28.4348C59.9253 27.9009 59.8971 27.3958 59.8407 26.9197C59.7839 26.4439 59.6678 25.92 59.4925 25.3482L64.1775 21.8082L62.0859 18.2319L56.7172 20.4813C56.0808 19.7828 55.2441 19.128 54.2069 18.5169C53.1702 17.9061 52.1891 17.501 51.2638 17.3015L50.6206 11.6052H46.4253L45.77 17.261C44.7101 17.4875 43.7357 17.8523 42.8469 18.3554C41.9584 18.8582 41.0745 19.5493 40.1952 20.4287L34.948 18.2319L32.8564 21.8082L37.4199 25.2146C37.2445 25.6865 37.1218 26.199 37.0517 26.7519C36.9816 27.3048 36.9465 27.8793 36.9465 28.4753C36.9465 29.0093 36.9816 29.5393 37.0517 30.0652C37.1218 30.5912 37.231 31.1036 37.3794 31.6025L32.8564 35.0615L34.948 38.6378L40.1547 36.4289C40.98 37.2624 41.8369 37.9306 42.7254 38.4338C43.6142 38.9366 44.6156 39.3282 45.7295 39.6087L46.4132 45.2645ZM48.4601 33.6941C49.9275 33.6941 51.1709 33.1843 52.1905 32.1647C53.2098 31.1455 53.7194 29.9022 53.7194 28.4348C53.7194 26.9675 53.2098 25.7242 52.1905 24.705C51.1709 23.6854 49.9275 23.1756 48.4601 23.1756C46.9851 23.1756 45.7397 23.6854 44.7239 24.705C43.7085 25.7242 43.2009 26.9675 43.2009 28.4348C43.2009 29.9022 43.7085 31.1455 44.7239 32.1647C45.7397 33.1843 46.9851 33.6941 48.4601 33.6941Z" fill="#FF7F00" stroke="#FF7F00" stroke-width="1.48497"/>
</g>
</svg>
