<svg width="50" height="50" viewBox="0 0 50 50" fill="none" xmlns="http://www.w3.org/2000/svg">
<mask id="mask0_287_5345" style="mask-type:alpha" maskUnits="userSpaceOnUse" x="0" y="0" width="50" height="50">
<rect width="50" height="50" fill="#D9D9D9"/>
</mask>
<g mask="url(#mask0_287_5345)">
<path d="M10.4154 43.75C9.82509 43.75 9.3303 43.5503 8.93099 43.151C8.53168 42.7517 8.33203 42.2569 8.33203 41.6667V33.3333C8.33203 32.1875 8.74002 31.2066 9.55599 30.3906C10.372 29.5747 11.3529 29.1667 12.4987 29.1667H37.4987C38.6445 29.1667 39.6254 29.5747 40.4414 30.3906C41.2574 31.2066 41.6654 32.1875 41.6654 33.3333V41.6667C41.6654 42.2569 41.4657 42.7517 41.0664 43.151C40.6671 43.5503 40.1723 43.75 39.582 43.75H10.4154ZM18.7487 27.0833C15.8668 27.0833 13.4102 26.0677 11.3789 24.0365C9.34766 22.0052 8.33203 19.5486 8.33203 16.6667C8.33203 13.7847 9.34766 11.3281 11.3789 9.29687C13.4102 7.26562 15.8668 6.25 18.7487 6.25H31.2487C34.1306 6.25 36.5872 7.26562 38.6185 9.29687C40.6497 11.3281 41.6654 13.7847 41.6654 16.6667C41.6654 19.5486 40.6497 22.0052 38.6185 24.0365C36.5872 26.0677 34.1306 27.0833 31.2487 27.0833H18.7487ZM12.4987 39.5833H37.4987V33.3333H12.4987V39.5833ZM18.7487 22.9167H31.2487C32.9848 22.9167 34.4605 22.309 35.6758 21.0937C36.8911 19.8785 37.4987 18.4028 37.4987 16.6667C37.4987 14.9306 36.8911 13.4549 35.6758 12.2396C34.4605 11.0243 32.9848 10.4167 31.2487 10.4167H18.7487C17.0126 10.4167 15.5369 11.0243 14.3216 12.2396C13.1063 13.4549 12.4987 14.9306 12.4987 16.6667C12.4987 18.4028 13.1063 19.8785 14.3216 21.0937C15.5369 22.309 17.0126 22.9167 18.7487 22.9167ZM18.7487 18.75C19.339 18.75 19.8338 18.5503 20.2331 18.151C20.6324 17.7517 20.832 17.2569 20.832 16.6667C20.832 16.0764 20.6324 15.5816 20.2331 15.1823C19.8338 14.783 19.339 14.5833 18.7487 14.5833C18.1584 14.5833 17.6636 14.783 17.2643 15.1823C16.865 15.5816 16.6654 16.0764 16.6654 16.6667C16.6654 17.2569 16.865 17.7517 17.2643 18.151C17.6636 18.5503 18.1584 18.75 18.7487 18.75ZM31.2487 18.75C31.839 18.75 32.3338 18.5503 32.7331 18.151C33.1324 17.7517 33.332 17.2569 33.332 16.6667C33.332 16.0764 33.1324 15.5816 32.7331 15.1823C32.3338 14.783 31.839 14.5833 31.2487 14.5833C30.6584 14.5833 30.1636 14.783 29.7643 15.1823C29.365 15.5816 29.1654 16.0764 29.1654 16.6667C29.1654 17.2569 29.365 17.7517 29.7643 18.151C30.1636 18.5503 30.6584 18.75 31.2487 18.75Z" fill="white"/>
</g>
</svg>
