<svg width="60" height="59" viewBox="0 0 60 59" fill="none" xmlns="http://www.w3.org/2000/svg">
<path d="M27.6354 42.9562L20.1633 51.5884C19.3655 52.51 17.9729 52.6137 17.0474 51.8204L10.7423 46.4161C9.80217 45.6102 9.70534 44.1901 10.5274 43.2641L18.0481 34.7926L27.6354 42.9562Z" stroke="#FF7F00" stroke-width="2.53117"/>
<path d="M30.0378 21.411L21.4195 14.4044L13.9021 8.29275C12.953 7.52114 11.5581 7.66502 10.7865 8.61411L2.40367 18.9252C1.63207 19.8742 1.77595 21.2692 2.72504 22.0408L45.4421 56.7694C46.3912 57.541 47.7861 57.3972 48.5577 56.4481L56.9405 46.137C57.7121 45.1879 57.5682 43.793 56.6191 43.0214L46.7991 35.0378L40.5948 29.9937" stroke="#FF7F00" stroke-width="2.76844"/>
<path d="M33.9033 36.6369L48.4576 20.8171L53.4034 25.763C53.7196 26.0792 54.2609 25.9095 54.3399 25.4693L58.441 2.62042C58.5093 2.23974 58.1762 1.90807 57.7958 1.97806L34.4359 6.27566C33.9952 6.35674 33.8283 6.90042 34.1476 7.21478L38.9657 11.958L23.9766 28.3389" stroke="#FF7F00" stroke-width="2.76844"/>
</svg>
