<svg width="65" height="66" viewBox="0 0 65 66" fill="none" xmlns="http://www.w3.org/2000/svg">
<path d="M14.3902 55.4862V33.639C14.3902 32.7185 13.644 31.9723 12.7235 31.9723H7.83464C6.91416 31.9723 6.16797 32.7185 6.16797 33.639V55.4862C6.16797 56.4067 6.91416 57.1529 7.83464 57.1529H12.7235C13.644 57.1529 14.3902 56.4067 14.3902 55.4862Z" stroke="#FF7F00" stroke-width="2.56945"/>
<path d="M13.7461 53.2084L17.4202 55.5047C19.377 56.7277 21.6342 57.3852 23.9417 57.4043L38.8855 57.528C42.1032 57.5547 45.2073 56.3394 47.5516 54.1352L57.3156 44.9547C57.6614 44.6296 57.9152 44.219 58.0516 43.7645V43.7645C58.5709 42.0337 57.2748 40.2917 55.4678 40.2917H54.5528C53.7204 40.2917 52.9173 40.599 52.2976 41.1547L42.1264 50.2736C41.5149 50.8219 40.7225 51.1251 39.9012 51.1251H27.2603C26.111 51.1251 25.0427 50.533 24.4336 49.5584L24.1576 49.1167C23.6509 48.3061 23.6509 47.2774 24.1576 46.4667L24.4336 46.0251C25.0427 45.0505 26.111 44.4584 27.2603 44.4584H32.1159C33.1445 44.4584 34.1155 43.9835 34.747 43.1715L35.0711 42.7549C36.0073 41.5512 36.0073 39.8656 35.0711 38.6619L34.747 38.2452C34.1155 37.4333 33.1445 36.9584 32.1159 36.9584H14.5794" stroke="#FF7F00" stroke-width="2.56945"/>
<path d="M33.3984 51.2431L49.3842 37.4561C49.7962 37.1008 50.2806 36.8393 50.8037 36.6898L51.0636 36.6156C52.2133 36.2871 53.4506 36.6077 54.2961 37.4532V37.4532C54.7529 37.91 55.0096 38.5297 55.0096 39.1758V40.1945" stroke="#FF7F00" stroke-width="2.56945"/>
<mask id="mask0_381_2877" style="mask-type:alpha" maskUnits="userSpaceOnUse" x="20" y="8" width="26" height="26">
<rect x="20.8359" y="8.62512" width="25.0001" height="25.0001" fill="#D9D9D9"/>
</mask>
<g mask="url(#mask0_381_2877)">
<path d="M31.8763 23.0002L29.6367 20.7606C29.4458 20.5696 29.2027 20.4741 28.9076 20.4741C28.6124 20.4741 28.3694 20.5696 28.1784 20.7606C27.9874 20.9516 27.8919 21.1946 27.8919 21.4898C27.8919 21.7849 27.9874 22.028 28.1784 22.2189L31.1472 25.1877C31.3555 25.396 31.5985 25.5002 31.8763 25.5002C32.1541 25.5002 32.3972 25.396 32.6055 25.1877L38.4909 19.3023C38.6819 19.1113 38.7774 18.8682 38.7774 18.5731C38.7774 18.278 38.6819 18.0349 38.4909 17.8439C38.3 17.653 38.0569 17.5575 37.7618 17.5575C37.4666 17.5575 37.2236 17.653 37.0326 17.8439L31.8763 23.0002ZM33.3347 31.5419C31.8937 31.5419 30.5395 31.2684 29.2722 30.7216C28.0048 30.1747 26.9024 29.4325 25.9649 28.495C25.0273 27.5575 24.2852 26.4551 23.7383 25.1877C23.1914 23.9203 22.918 22.5662 22.918 21.1252C22.918 19.6842 23.1914 18.33 23.7383 17.0627C24.2852 15.7953 25.0273 14.6929 25.9649 13.7554C26.9024 12.8179 28.0048 12.0757 29.2722 11.5288C30.5395 10.9819 31.8937 10.7085 33.3347 10.7085C34.7756 10.7085 36.1298 10.9819 37.3972 11.5288C38.6645 12.0757 39.767 12.8179 40.7045 13.7554C41.642 14.6929 42.3842 15.7953 42.931 17.0627C43.4779 18.33 43.7514 19.6842 43.7514 21.1252C43.7514 22.5662 43.4779 23.9203 42.931 25.1877C42.3842 26.4551 41.642 27.5575 40.7045 28.495C39.767 29.4325 38.6645 30.1747 37.3972 30.7216C36.1298 31.2684 34.7756 31.5419 33.3347 31.5419ZM33.3347 29.4585C35.6611 29.4585 37.6316 28.6513 39.2461 27.0367C40.8607 25.4221 41.668 23.4516 41.668 21.1252C41.668 18.7988 40.8607 16.8283 39.2461 15.2137C37.6316 13.5991 35.6611 12.7918 33.3347 12.7918C31.0083 12.7918 29.0378 13.5991 27.4232 15.2137C25.8086 16.8283 25.0013 18.7988 25.0013 21.1252C25.0013 23.4516 25.8086 25.4221 27.4232 27.0367C29.0378 28.6513 31.0083 29.4585 33.3347 29.4585Z" fill="#FF7F00" stroke="#FF7F00" stroke-width="0.51389"/>
</g>
</svg>
