<svg width="100" height="92" viewBox="0 0 100 92" fill="none" xmlns="http://www.w3.org/2000/svg">
<path d="M16.1836 84.0098H83.9372" stroke="#FF7F00" stroke-width="4" stroke-linecap="round"/>
<path d="M25.6055 89.0818H74.3977" stroke="#FF7F00" stroke-width="4" stroke-linecap="round"/>
<path d="M38.4072 82.9226V71.6907M38.4072 71.6907C38.6414 67.3181 36.4677 58.6596 26.1141 57.9641C25.5388 57.9254 25.0293 58.3279 24.9495 58.8989C24.22 64.1162 25.9825 72.6883 38.4072 71.6907Z" stroke="#FF7F00" stroke-width="4"/>
<path d="M61.3702 82.9226V71.6907M61.3702 71.6907C61.1359 67.3181 63.3097 58.6596 73.6633 57.9641C74.2385 57.9254 74.748 58.3279 74.8279 58.8989C75.5573 64.1162 73.7949 72.6883 61.3702 71.6907Z" stroke="#FF7F00" stroke-width="4"/>
<path d="M50.0017 83.1641V55.1448M50.0017 55.1448C50.1195 49.6093 53.2695 38.7903 64.8056 38.7051C65.336 38.7012 65.7993 39.0662 65.9002 39.5868C67.0016 45.2704 65.2322 55.1448 50.0017 55.1448ZM50.0017 55.1448C43.79 55.8525 32.088 53.7036 33.7928 39.7447C33.8646 39.1567 34.3727 38.7013 34.965 38.7074C38.4148 38.7426 48.6305 39.8498 50.0017 55.1448Z" stroke="#FF7F00" stroke-width="4"/>
<mask id="mask0_640_1104" style="mask-type:alpha" maskUnits="userSpaceOnUse" x="31" y="-2" width="38" height="38">
<rect x="31.1602" y="-1.86011" width="37.6812" height="37.6812" fill="#D9D9D9"/>
</mask>
<g mask="url(#mask0_640_1104)">
<path d="M50.0013 32.6805C47.8294 32.6805 45.7883 32.2684 43.8781 31.4441C41.9679 30.6198 40.3062 29.5012 38.8932 28.0881C37.4801 26.6751 36.3615 25.0134 35.5372 23.1032C34.7129 21.193 34.3008 19.1519 34.3008 16.98C34.3008 14.8081 34.7129 12.7671 35.5372 10.8568C36.3615 8.94661 37.4801 7.28498 38.8932 5.87193C40.3062 4.45889 41.9679 3.34023 43.8781 2.51595C45.7883 1.69168 47.8294 1.27954 50.0013 1.27954C52.1732 1.27954 54.2142 1.69168 56.1245 2.51595C58.0347 3.34023 59.6963 4.45889 61.1094 5.87193C62.5224 7.28498 63.6411 8.94661 64.4653 10.8568C65.2896 12.7671 65.7017 14.8081 65.7017 16.98C65.7017 19.1519 65.2896 21.193 64.4653 23.1032C63.6411 25.0134 62.5224 26.6751 61.1094 28.0881C59.6963 29.5012 58.0347 30.6198 56.1245 31.4441C54.2142 32.2684 52.1732 32.6805 50.0013 32.6805ZM50.0013 29.5404C53.5077 29.5404 56.4777 28.3236 58.9113 25.89C61.3449 23.4565 62.5617 20.4865 62.5617 16.98C62.5617 13.4736 61.3449 10.5036 58.9113 8.07C56.4777 5.63643 53.5077 4.41964 50.0013 4.41964C46.4948 4.41964 43.5248 5.63643 41.0912 8.07C38.6577 10.5036 37.4409 13.4736 37.4409 16.98C37.4409 20.4865 38.6577 23.4565 41.0912 25.89C43.5248 28.3236 46.4948 29.5404 50.0013 29.5404ZM49.962 27.9704C50.3284 27.9704 50.6489 27.833 50.9237 27.5582C51.1984 27.2835 51.3358 26.9629 51.3358 26.5966V26.0078C52.6442 25.7723 53.7694 25.262 54.7114 24.477C55.6534 23.692 56.1245 22.5275 56.1245 20.9836C56.1245 19.8846 55.8104 18.8772 55.1824 17.9613C54.5544 17.0454 53.2984 16.2473 51.4143 15.567C49.8443 15.0436 48.7583 14.5857 48.1565 14.1932C47.5546 13.8007 47.2537 13.2642 47.2537 12.5839C47.2537 11.9035 47.4957 11.3671 47.9798 10.9746C48.4639 10.5821 49.1639 10.3858 50.0798 10.3858C50.6031 10.3858 51.061 10.4774 51.4536 10.6606C51.8461 10.8438 52.1732 11.0923 52.4348 11.4064C52.6965 11.7204 52.9909 11.9362 53.318 12.054C53.6451 12.1718 53.9526 12.1652 54.2404 12.0344C54.6329 11.8774 54.9011 11.6092 55.045 11.2297C55.189 10.8503 55.1563 10.5036 54.9469 10.1896C54.5282 9.58771 54.0114 9.07745 53.3965 8.65877C52.7816 8.24009 52.1208 8.00458 51.4143 7.95225V7.36348C51.4143 6.99713 51.2769 6.67658 51.0022 6.40182C50.7274 6.12707 50.4069 5.98969 50.0405 5.98969C49.6742 5.98969 49.3536 6.12707 49.0789 6.40182C48.8041 6.67658 48.6667 6.99713 48.6667 7.36348V7.95225C47.3584 8.24009 46.3378 8.81577 45.6051 9.6793C44.8724 10.5428 44.5061 11.511 44.5061 12.5839C44.5061 13.8138 44.8659 14.8081 45.5855 15.567C46.3051 16.3258 47.4369 16.98 48.9807 17.5295C50.6293 18.1314 51.7741 18.6678 52.4152 19.1388C53.0563 19.6099 53.3769 20.2248 53.3769 20.9836C53.3769 21.8472 53.0694 22.4817 52.4545 22.8873C51.8395 23.2929 51.1003 23.4957 50.2368 23.4957C49.5564 23.4957 48.9415 23.3322 48.392 23.0051C47.8424 22.678 47.3845 22.1874 47.0182 21.5332C46.8088 21.1668 46.5341 20.9182 46.1939 20.7874C45.8537 20.6566 45.5135 20.6566 45.1734 20.7874C44.807 20.9182 44.5388 21.1668 44.3687 21.5332C44.1986 21.8995 44.1921 22.2528 44.3491 22.5929C44.7678 23.4826 45.3304 24.2088 46.0369 24.7714C46.7434 25.334 47.5939 25.72 48.5882 25.9293V26.5966C48.5882 26.9629 48.7256 27.2835 49.0004 27.5582C49.2751 27.833 49.5957 27.9704 49.962 27.9704Z" fill="#FF7F00" stroke="#FF7F00" stroke-width="0.4"/>
</g>
<mask id="mask1_640_1104" style="mask-type:alpha" maskUnits="userSpaceOnUse" x="-2" y="25" width="32" height="33">
<rect x="-1.39062" y="25.8574" width="31.1594" height="31.1594" fill="#D9D9D9"/>
</mask>
<g mask="url(#mask1_640_1104)">
<path d="M14.1901 54.4203C12.3941 54.4203 10.7063 54.0795 9.12672 53.3979C7.54711 52.7163 6.17306 51.7912 5.00459 50.6227C3.83611 49.4543 2.91106 48.0802 2.22945 46.5006C1.54784 44.921 1.20703 43.2332 1.20703 41.4372C1.20703 39.6412 1.54784 37.9534 2.22945 36.3738C2.91106 34.7942 3.83611 33.4201 5.00459 32.2517C6.17306 31.0832 7.54711 30.1581 9.12672 29.4765C10.7063 28.7949 12.3941 28.4541 14.1901 28.4541C15.9861 28.4541 17.6739 28.7949 19.2535 29.4765C20.8331 30.1581 22.2072 31.0832 23.3757 32.2517C24.5441 33.4201 25.4692 34.7942 26.1508 36.3738C26.8324 37.9534 27.1732 39.6412 27.1732 41.4372C27.1732 43.2332 26.8324 44.921 26.1508 46.5006C25.4692 48.0802 24.5441 49.4543 23.3757 50.6227C22.2072 51.7912 20.8331 52.7163 19.2535 53.3979C17.6739 54.0795 15.9861 54.4203 14.1901 54.4203ZM14.1901 51.8237C17.0897 51.8237 19.5456 50.8175 21.558 48.8051C23.5704 46.7927 24.5766 44.3367 24.5766 41.4372C24.5766 38.5376 23.5704 36.0817 21.558 34.0693C19.5456 32.0569 17.0897 31.0507 14.1901 31.0507C11.2906 31.0507 8.8346 32.0569 6.82222 34.0693C4.80984 36.0817 3.80365 38.5376 3.80365 41.4372C3.80365 44.3367 4.80984 46.7927 6.82222 48.8051C8.8346 50.8175 11.2906 51.8237 14.1901 51.8237ZM14.1577 50.5254C14.4606 50.5254 14.7257 50.4118 14.9529 50.1846C15.1801 49.9573 15.2937 49.6923 15.2937 49.3893V48.9025C16.3756 48.7077 17.3061 48.2858 18.085 47.6366C18.864 46.9875 19.2535 46.0246 19.2535 44.7479C19.2535 43.8391 18.9939 43.006 18.4745 42.2486C17.9552 41.4913 16.9166 40.8313 15.3586 40.2687C14.0603 39.8359 13.1623 39.4573 12.6646 39.1327C12.1669 38.8081 11.9181 38.3645 11.9181 37.8019C11.9181 37.2393 12.1182 36.7957 12.5185 36.4712C12.9189 36.1466 13.4977 35.9843 14.255 35.9843C14.6878 35.9843 15.0665 36.06 15.3911 36.2115C15.7156 36.363 15.9861 36.5685 16.2025 36.8282C16.4189 37.0879 16.6623 37.2664 16.9328 37.3637C17.2033 37.4611 17.4575 37.4557 17.6956 37.3475C18.0201 37.2177 18.2419 36.9959 18.3609 36.6821C18.48 36.3684 18.4529 36.0817 18.2798 35.822C17.9336 35.3243 17.5062 34.9024 16.9977 34.5562C16.4892 34.2099 15.9428 34.0152 15.3586 33.9719V33.485C15.3586 33.1821 15.245 32.917 15.0178 32.6898C14.7906 32.4626 14.5255 32.349 14.2226 32.349C13.9196 32.349 13.6546 32.4626 13.4274 32.6898C13.2002 32.917 13.0866 33.1821 13.0866 33.485V33.9719C12.0046 34.2099 11.1607 34.686 10.5549 35.4001C9.94898 36.1141 9.64604 36.9147 9.64604 37.8019C9.64604 38.8189 9.94357 39.6412 10.5386 40.2687C11.1337 40.8962 12.0696 41.4372 13.3462 41.8916C14.7094 42.3893 15.6561 42.8329 16.1863 43.2224C16.7164 43.6119 16.9815 44.1204 16.9815 44.7479C16.9815 45.462 16.7272 45.9867 16.2187 46.3221C15.7102 46.6575 15.0989 46.8252 14.3849 46.8252C13.8223 46.8252 13.3138 46.6899 12.8594 46.4195C12.4049 46.149 12.0263 45.7433 11.7233 45.2023C11.5502 44.8994 11.323 44.6938 11.0417 44.5856C10.7604 44.4774 10.4791 44.4774 10.1978 44.5856C9.89488 44.6938 9.67309 44.8994 9.53244 45.2023C9.39179 45.5052 9.38638 45.7973 9.51621 46.0786C9.86242 46.8144 10.3277 47.4148 10.9119 47.8801C11.4961 48.3453 12.1994 48.6644 13.0216 48.8376V49.3893C13.0216 49.6923 13.1352 49.9573 13.3625 50.1846C13.5897 50.4118 13.8547 50.5254 14.1577 50.5254Z" fill="#FF7F00" stroke="#FF7F00" stroke-width="0.4"/>
</g>
<mask id="mask2_640_1104" style="mask-type:alpha" maskUnits="userSpaceOnUse" x="70" y="25" width="32" height="33">
<rect x="70.2305" y="25.8574" width="31.1594" height="31.1594" fill="#D9D9D9"/>
</mask>
<g mask="url(#mask2_640_1104)">
<path d="M85.8112 54.4203C84.0152 54.4203 82.3274 54.0795 80.7478 53.3979C79.1682 52.7163 77.7942 51.7912 76.6257 50.6227C75.4572 49.4543 74.5322 48.0802 73.8505 46.5006C73.1689 44.921 72.8281 43.2332 72.8281 41.4372C72.8281 39.6412 73.1689 37.9534 73.8505 36.3738C74.5322 34.7942 75.4572 33.4201 76.6257 32.2517C77.7942 31.0832 79.1682 30.1581 80.7478 29.4765C82.3274 28.7949 84.0152 28.4541 85.8112 28.4541C87.6072 28.4541 89.295 28.7949 90.8746 29.4765C92.4542 30.1581 93.8283 31.0832 94.9968 32.2517C96.1652 33.4201 97.0903 34.7942 97.7719 36.3738C98.4535 37.9534 98.7943 39.6412 98.7943 41.4372C98.7943 43.2332 98.4535 44.921 97.7719 46.5006C97.0903 48.0802 96.1652 49.4543 94.9968 50.6227C93.8283 51.7912 92.4542 52.7163 90.8746 53.3979C89.295 54.0795 87.6072 54.4203 85.8112 54.4203ZM85.8112 51.8237C88.7108 51.8237 91.1667 50.8175 93.1791 48.8051C95.1915 46.7927 96.1977 44.3368 96.1977 41.4372C96.1977 38.5376 95.1915 36.0817 93.1791 34.0693C91.1667 32.0569 88.7108 31.0507 85.8112 31.0507C82.9117 31.0507 80.4557 32.0569 78.4433 34.0693C76.4309 36.0817 75.4247 38.5376 75.4247 41.4372C75.4247 44.3368 76.4309 46.7927 78.4433 48.8051C80.4557 50.8175 82.9117 51.8237 85.8112 51.8237ZM85.7788 50.5254C86.0817 50.5254 86.3468 50.4118 86.574 50.1846C86.8012 49.9573 86.9148 49.6923 86.9148 49.3893V48.9025C87.9967 48.7077 88.9272 48.2858 89.7061 47.6366C90.4851 46.9875 90.8746 46.0246 90.8746 44.7479C90.8746 43.8391 90.615 43.006 90.0956 42.2486C89.5763 41.4913 88.5377 40.8313 86.9797 40.2687C85.6814 39.8359 84.7834 39.4573 84.2857 39.1327C83.788 38.8081 83.5392 38.3645 83.5392 37.8019C83.5392 37.2393 83.7393 36.7957 84.1396 36.4712C84.54 36.1466 85.1188 35.9843 85.8761 35.9843C86.3089 35.9843 86.6876 36.06 87.0122 36.2115C87.3367 36.363 87.6072 36.5685 87.8236 36.8282C88.04 37.0879 88.2834 37.2664 88.5539 37.3637C88.8244 37.4611 89.0786 37.4557 89.3167 37.3475C89.6412 37.2177 89.863 36.9959 89.982 36.6821C90.101 36.3684 90.074 36.0817 89.9009 35.822C89.5547 35.3243 89.1273 34.9024 88.6188 34.5562C88.1103 34.2099 87.5639 34.0152 86.9797 33.9719V33.485C86.9797 33.1821 86.8661 32.917 86.6389 32.6898C86.4117 32.4626 86.1466 32.349 85.8437 32.349C85.5407 32.349 85.2757 32.4626 85.0485 32.6898C84.8213 32.917 84.7077 33.1821 84.7077 33.485V33.9719C83.6257 34.2099 82.7818 34.686 82.176 35.4001C81.5701 36.1141 81.2671 36.9148 81.2671 37.8019C81.2671 38.8189 81.5647 39.6412 82.1597 40.2687C82.7548 40.8962 83.6906 41.4372 84.9673 41.8916C86.3305 42.3893 87.2772 42.8329 87.8074 43.2224C88.3375 43.6119 88.6026 44.1204 88.6026 44.7479C88.6026 45.462 88.3483 45.9867 87.8398 46.3221C87.3313 46.6575 86.72 46.8252 86.006 46.8252C85.4434 46.8252 84.9349 46.6899 84.4804 46.4195C84.026 46.149 83.6474 45.7433 83.3444 45.2023C83.1713 44.8994 82.9441 44.6938 82.6628 44.5856C82.3815 44.4774 82.1002 44.4774 81.8189 44.5856C81.516 44.6938 81.2942 44.8994 81.1535 45.2023C81.0129 45.5052 81.0075 45.7973 81.1373 46.0786C81.4835 46.8144 81.9487 47.4148 82.533 47.8801C83.1172 48.3453 83.8205 48.6644 84.6427 48.8376V49.3893C84.6427 49.6923 84.7563 49.9573 84.9835 50.1846C85.2107 50.4118 85.4758 50.5254 85.7788 50.5254Z" fill="#FF7F00" stroke="#FF7F00" stroke-width="0.4"/>
</g>
</svg>
