<svg width="50" height="50" viewBox="0 0 50 50" fill="none" xmlns="http://www.w3.org/2000/svg">
<mask id="mask0_287_5339" style="mask-type:alpha" maskUnits="userSpaceOnUse" x="0" y="0" width="50" height="50">
<rect width="50" height="50" fill="#D9D9D9"/>
</mask>
<g mask="url(#mask0_287_5339)">
<path d="M8.60696 20.6765C8.14398 20.4836 7.70994 20.281 7.30484 20.0688C6.89973 19.8566 6.48498 19.5962 6.06059 19.2876L4.3823 19.8084C3.88074 19.9627 3.38883 19.9434 2.90656 19.7505C2.42429 19.5576 2.04813 19.249 1.77806 18.8246L1.31508 18.0144C1.04501 17.5514 0.948558 17.0498 1.02572 16.5097C1.10288 15.9696 1.35366 15.5259 1.77806 15.1786L3.05124 14.0791C2.97408 13.5775 2.9355 13.076 2.9355 12.5744C2.9355 12.0728 2.97408 11.5713 3.05124 11.0697L1.77806 9.97016C1.35366 9.62293 1.10288 9.18889 1.02572 8.66804C0.948558 8.1472 1.04501 7.65528 1.31508 7.19231L1.83593 6.32423C2.106 5.89983 2.47252 5.59118 2.9355 5.39827C3.39847 5.20537 3.88074 5.18608 4.3823 5.3404L6.06059 5.86125C6.48498 5.5526 6.89973 5.29218 7.30484 5.07998C7.70994 4.86778 8.14398 4.66523 8.60696 4.47232L8.95419 2.79403C9.06993 2.25389 9.33036 1.81985 9.73546 1.49191C10.1406 1.16397 10.6132 1 11.1533 1H12.0793C12.6194 1 13.092 1.17362 13.4971 1.52085C13.9022 1.86808 14.1627 2.31177 14.2784 2.8519L14.6256 4.47232C15.0886 4.66523 15.5227 4.86778 15.9278 5.07998C16.3329 5.29218 16.7476 5.5526 17.172 5.86125L18.8503 5.3404C19.3519 5.18608 19.8438 5.20537 20.326 5.39827C20.8083 5.59118 21.1845 5.89983 21.4545 6.32423L21.9175 7.13444C22.1876 7.59741 22.284 8.09897 22.2069 8.63911C22.1297 9.17925 21.8789 9.62293 21.4545 9.97016L20.1814 11.0697C20.2585 11.5713 20.2971 12.0728 20.2971 12.5744C20.2971 13.076 20.2585 13.5775 20.1814 14.0791L21.4545 15.1786C21.8789 15.5259 22.1297 15.9599 22.2069 16.4808C22.284 17.0016 22.1876 17.4935 21.9175 17.9565L21.3967 18.8246C21.1266 19.249 20.7601 19.5576 20.2971 19.7505C19.8341 19.9434 19.3519 19.9627 18.8503 19.8084L17.172 19.2876C16.7476 19.5962 16.3329 19.8566 15.9278 20.0688C15.5227 20.281 15.0886 20.4836 14.6256 20.6765L14.2784 22.3548C14.1627 22.8949 13.9022 23.329 13.4971 23.6569C13.092 23.9848 12.6194 24.1488 12.0793 24.1488H11.1533C10.6132 24.1488 10.1406 23.9752 9.73546 23.628C9.33036 23.2807 9.06993 22.837 8.95419 22.2969L8.60696 20.6765ZM11.6163 17.2042C12.8895 17.2042 13.9794 16.7508 14.8861 15.8442C15.7927 14.9375 16.2461 13.8476 16.2461 12.5744C16.2461 11.3012 15.7927 10.2113 14.8861 9.30464C13.9794 8.39797 12.8895 7.94464 11.6163 7.94464C10.3431 7.94464 9.25319 8.39797 8.34653 9.30464C7.43987 10.2113 6.98654 11.3012 6.98654 12.5744C6.98654 13.8476 7.43987 14.9375 8.34653 15.8442C9.25319 16.7508 10.3431 17.2042 11.6163 17.2042ZM28.9779 44.7513C28.322 44.5198 27.7144 44.2401 27.1549 43.9121C26.5955 43.5842 26.0457 43.208 25.5056 42.7836L23.3065 43.4781C22.612 43.7096 21.9175 43.6999 21.2231 43.4491C20.5286 43.1984 19.9885 42.745 19.6026 42.0891L18.9661 40.9896C18.5802 40.3337 18.4452 39.6296 18.5609 38.8772C18.6767 38.1249 19.0239 37.498 19.6026 36.9964L21.3388 35.4917C21.2616 34.7973 21.2231 34.1028 21.2231 33.4083C21.2231 32.7139 21.2616 32.0194 21.3388 31.3249L19.6026 29.7624C19.0239 29.2608 18.6767 28.6435 18.5609 27.9105C18.4452 27.1774 18.5802 26.483 18.9661 25.8271L19.6026 24.7275C19.9885 24.0716 20.5286 23.6183 21.2231 23.3675C21.9175 23.1168 22.612 23.1071 23.3065 23.3386L25.5056 24.0331C26.0457 23.6087 26.5955 23.2325 27.1549 22.9046C27.7144 22.5766 28.322 22.2969 28.9779 22.0654L29.4988 19.6927C29.6531 18.9596 30.01 18.3616 30.5694 17.8986C31.1288 17.4357 31.7943 17.2042 32.566 17.2042H33.9549C34.7265 17.2042 35.3921 17.4357 35.9515 17.8986C36.5109 18.3616 36.8678 18.9596 37.0221 19.6927L37.543 22.0654C38.1989 22.2969 38.8065 22.5766 39.3659 22.9046C39.9254 23.2325 40.4752 23.6087 41.0153 24.0331L43.2144 23.3386C43.9089 23.1071 44.6034 23.1168 45.2978 23.3675C45.9923 23.6183 46.5324 24.0716 46.9182 24.7275L47.5548 25.8271C47.9406 26.483 48.0757 27.1871 47.9599 27.9394C47.8442 28.6918 47.497 29.3187 46.9182 29.8203L45.1821 31.3249C45.2592 32.0194 45.2978 32.7139 45.2978 33.4083C45.2978 34.1028 45.2592 34.7973 45.1821 35.4917L46.9182 37.0543C47.497 37.5558 47.8442 38.1731 47.9599 38.9062C48.0757 39.6392 47.9406 40.3337 47.5548 40.9896L46.9182 42.0891C46.5324 42.745 45.9923 43.1984 45.2978 43.4491C44.6034 43.6999 43.9089 43.7096 43.2144 43.4781L41.0153 42.7836C40.4752 43.208 39.9254 43.5842 39.3659 43.9121C38.8065 44.2401 38.1989 44.5198 37.543 44.7513L37.0221 47.124C36.8678 47.8571 36.5109 48.4551 35.9515 48.918C35.3921 49.381 34.7265 49.6125 33.9549 49.6125H32.566C31.7943 49.6125 31.1288 49.381 30.5694 48.918C30.01 48.4551 29.6531 47.8571 29.4988 47.124L28.9779 44.7513ZM33.2604 40.353C35.1895 40.353 36.8292 39.6778 38.1796 38.3275C39.5299 36.9771 40.2051 35.3374 40.2051 33.4083C40.2051 31.4793 39.5299 29.8396 38.1796 28.4892C36.8292 27.1389 35.1895 26.4637 33.2604 26.4637C31.3314 26.4637 29.6917 27.1389 28.3413 28.4892C26.991 29.8396 26.3158 31.4793 26.3158 33.4083C26.3158 35.3374 26.991 36.9771 28.3413 38.3275C29.6917 39.6778 31.3314 40.353 33.2604 40.353Z" fill="white"/>
</g>
</svg>
