<svg width="100" height="100" viewBox="0 0 100 100" fill="none" xmlns="http://www.w3.org/2000/svg">
<mask id="mask0_640_1024" style="mask-type:alpha" maskUnits="userSpaceOnUse" x="0" y="0" width="100" height="100">
<rect width="100" height="100" fill="#D9D9D9"/>
</mask>
<g mask="url(#mask0_640_1024)">
<path d="M16.7468 86.4581C15.8591 86.4581 15.1157 86.1585 14.5167 85.5592C13.917 84.9606 13.6172 84.2186 13.6172 83.3331V79.6071C13.6172 78.7217 13.9174 77.9797 14.5178 77.3811C15.1182 76.7818 15.8619 76.4821 16.7489 76.4821C17.6366 76.4821 18.3799 76.7818 18.9789 77.3811C19.5786 77.9797 19.8785 78.7217 19.8785 79.6071V83.3331C19.8785 84.2186 19.5783 84.9606 18.9779 85.5592C18.3775 86.1585 17.6338 86.4581 16.7468 86.4581ZM33.4435 86.4581C32.5558 86.4581 31.8125 86.1585 31.2135 85.5592C30.6138 84.9606 30.3139 84.2186 30.3139 83.3331V60.8571C30.3139 59.9717 30.6141 59.2297 31.2145 58.6311C31.8149 58.0318 32.5586 57.7321 33.4456 57.7321C34.3333 57.7321 35.0767 58.0318 35.6757 58.6311C36.2754 59.2297 36.5752 59.9717 36.5752 60.8571V83.3331C36.5752 84.2186 36.275 84.9606 35.6746 85.5592C35.0743 86.1585 34.3305 86.4581 33.4435 86.4581ZM50.1403 86.4581C49.2526 86.4581 48.5092 86.1585 47.9102 85.5592C47.3105 84.9606 47.0107 84.2186 47.0107 83.3331V69.1904C47.0107 68.305 47.3109 67.563 47.9113 66.9644C48.5117 66.3651 49.2554 66.0654 50.1424 66.0654C51.0301 66.0654 51.7734 66.3651 52.3724 66.9644C52.9721 67.563 53.272 68.305 53.272 69.1904V83.3331C53.272 84.2186 52.9718 84.9606 52.3714 85.5592C51.771 86.1585 51.0273 86.4581 50.1403 86.4581ZM66.837 86.4581C65.9493 86.4581 65.206 86.1585 64.607 85.5592C64.0073 84.9606 63.7074 84.2186 63.7074 83.3331V62.9404C63.7074 62.055 64.0076 61.313 64.608 60.7144C65.2084 60.1151 65.9521 59.8154 66.8391 59.8154C67.7268 59.8154 68.4702 60.1151 69.0692 60.7144C69.6689 61.313 69.9687 62.055 69.9687 62.9404V83.3331C69.9687 84.2186 69.6685 84.9606 69.0681 85.5592C68.4678 86.1585 67.7241 86.4581 66.837 86.4581ZM83.5338 86.4581C82.6461 86.4581 81.9027 86.1585 81.3037 85.5592C80.704 84.9606 80.4042 84.2186 80.4042 83.3331V46.2738C80.4042 45.3884 80.7044 44.6463 81.3048 44.0477C81.9052 43.4484 82.6489 43.1488 83.5359 43.1488C84.4236 43.1488 85.1669 43.4484 85.7659 44.0477C86.3656 44.6463 86.6655 45.3884 86.6655 46.2738V83.3331C86.6655 84.2186 86.3653 84.9606 85.7649 85.5592C85.1645 86.1585 84.4208 86.4581 83.5338 86.4581ZM58.4897 48.7738C57.5102 48.7738 56.5633 48.5863 55.6492 48.2113C54.735 47.8363 53.8998 47.3054 53.1436 46.6186L42.7165 36.2092C42.4758 35.9689 42.1679 35.8488 41.793 35.8488C41.418 35.8488 41.1101 35.9689 40.8694 36.2092L18.9476 58.0925C18.3264 58.712 17.5823 59.0179 16.7155 59.0102C15.8486 59.0019 15.1049 58.6748 14.4844 58.029C13.9062 57.4088 13.6301 56.6713 13.6558 55.8165C13.6815 54.9609 13.979 54.2481 14.548 53.6779L36.4469 31.8186C37.2031 31.0693 38.0383 30.5227 38.9524 30.179C39.8666 29.8352 40.8134 29.6634 41.793 29.6634C42.7725 29.6634 43.735 29.8352 44.6805 30.179C45.6259 30.5227 46.4454 31.0693 47.139 31.8186L57.5662 42.2279C57.8069 42.4682 58.1147 42.5884 58.4897 42.5884C58.8647 42.5884 59.1725 42.4682 59.4132 42.2279L81.335 20.3446C81.9563 19.7252 82.7003 19.4193 83.5672 19.4269C84.434 19.4352 85.1777 19.7623 85.7983 20.4081C86.3764 21.0283 86.6526 21.7658 86.6269 22.6206C86.6011 23.4762 86.3037 24.1891 85.7346 24.7592L63.8358 46.6186C63.1422 47.3054 62.3227 47.8363 61.3772 48.2113C60.4317 48.5863 59.4692 48.7738 58.4897 48.7738Z" fill="#FF7F00"/>
</g>
</svg>
