<svg width="100" height="100" viewBox="0 0 100 100" fill="none" xmlns="http://www.w3.org/2000/svg">
<mask id="mask0_640_198" style="mask-type:alpha" maskUnits="userSpaceOnUse" x="0" y="0" width="100" height="100">
<rect x="97.9167" y="2.08333" width="95.8333" height="95.8333" transform="rotate(90 97.9167 2.08333)" fill="#D9D9D9" stroke="#FF7F00" stroke-width="4.16667"/>
</mask>
<g mask="url(#mask0_640_198)">
<path d="M89.5303 45.384V54.6155C89.5303 56.0235 89.0631 57.2384 88.1289 58.262C87.2529 59.2231 86.1875 59.8307 84.9316 60.0862L84.6777 60.1331L76.8428 61.1506L76.8115 61.1545L76.8008 61.1838C76.3477 62.4309 75.8191 63.5591 75.2148 64.5676C74.6099 65.5779 73.8959 66.5985 73.0742 67.6282L73.0557 67.6516L73.0674 67.6799L76.0967 75.0608V75.0618C76.6684 76.3581 76.717 77.6596 76.2432 78.969C75.7694 80.2799 74.9401 81.2967 73.7539 82.0217H73.7549L65.6934 86.678H65.6924C64.4808 87.4031 63.2005 87.6113 61.8486 87.304C60.4964 86.997 59.3813 86.2939 58.502 85.1926L55.665 81.4104L55.6641 81.4084C55.0952 80.7294 54.8582 79.9895 54.9502 79.1877C55.0424 78.3849 55.4272 77.686 56.1074 77.0901C56.7863 76.4955 57.5383 76.2417 58.3662 76.3254C59.1963 76.4094 59.8959 76.7889 60.4648 77.468L63.082 81.0081L63.1094 81.0452L63.1494 81.0217L70.2334 76.9202L70.2725 76.8967L70.2549 76.8547L65.8545 66.4133C67.3374 65.0204 68.6488 63.3555 69.7871 61.4172C70.926 59.4771 71.7358 57.5138 72.2139 55.5276L83.3379 54.218L83.3838 54.2131V45.8518L83.3389 45.8459L72.252 44.4709C71.7486 42.3544 70.9812 40.3982 69.9482 38.6038C68.9142 36.8079 67.5836 35.0952 65.958 33.4651L70.2549 23.1448L70.2725 23.1028L70.2334 23.0803L63.1494 18.9778L63.1094 18.9543L63.082 18.9915L56.3984 27.9592C55.4172 27.6175 54.3973 27.3781 53.3389 27.2405C52.2684 27.1013 51.1416 27.0315 49.959 27.0315C48.8721 27.0315 47.8067 27.1013 46.7627 27.2405C45.7302 27.3781 44.7106 27.6043 43.7041 27.9202L36.915 18.9915L36.8877 18.9543L36.8477 18.9778L29.7646 23.0803L29.7246 23.1028L29.7422 23.1458L34.1045 33.426C32.8522 34.6814 31.7585 36.009 30.8252 37.4104C29.8891 38.8159 29.1224 40.3427 28.5234 41.9895C26.9224 42.8617 25.3911 42.9403 24.3584 42.3723C23.3271 41.8051 22.7746 40.5822 23.1592 38.8088C23.5314 37.6985 24.0524 36.5591 24.7227 35.3909C25.395 34.2209 26.1152 33.1749 26.8818 32.2532L26.9014 32.2288L26.8896 32.1995L23.8203 24.9797V24.9788C23.2843 23.7627 23.2018 22.5427 23.5732 21.3167L23.6543 21.0715L23.7451 20.8293C24.2208 19.635 25.0262 18.6973 26.1631 18.0168L34.3037 13.3225L34.3047 13.3215C35.4404 12.6418 36.6367 12.4162 37.8955 12.6438L38.1484 12.6956C39.5012 13.0026 40.6175 13.7059 41.4971 14.8079L46.1826 21.0491L46.2021 21.0735L46.2324 21.0696C46.8503 20.974 47.4713 20.9057 48.0947 20.8655C48.7186 20.8253 49.34 20.8049 49.959 20.8049C50.5501 20.8049 51.1511 20.8253 51.7617 20.8655C52.3721 20.9057 53.0402 20.9739 53.7656 21.0696L53.7959 21.0735L53.8145 21.0491L58.501 14.8079V14.8088C59.3804 13.707 60.5025 13.0091 61.8691 12.7151C63.2338 12.4214 64.521 12.6373 65.7334 13.3625H65.7344L73.7549 18.0178L73.7559 18.0168C74.9415 18.7425 75.7695 19.7611 76.2432 21.0715C76.717 22.3802 76.6684 23.6818 76.0967 24.9788V24.9797L73.0674 32.1584L73.0557 32.1877L73.0742 32.2112C73.8684 33.214 74.5954 34.2849 75.2539 35.4231C75.9122 36.561 76.4413 37.6792 76.8408 38.7766L76.8516 38.8059L76.8828 38.8098L84.6777 39.8674C86.0446 40.0898 87.1944 40.7132 88.1289 41.7385C89.0629 42.762 89.5302 43.9762 89.5303 45.384ZM62.4463 50.0481C62.4463 51.5224 62.2259 52.9107 61.7842 54.2131C61.3983 55.3533 60.8639 56.3444 60.1816 57.1858L59.8799 57.5364L59.8779 57.5383C59.2819 58.2613 58.5546 58.6949 57.6943 58.842C56.8357 58.9895 56.0474 58.7883 55.3271 58.2356C54.6044 57.6815 54.1937 57.0189 54.0889 56.2473C53.9839 55.4739 54.1855 54.7844 54.6943 54.176V54.175C55.1948 53.6154 55.5876 52.9768 55.8721 52.259C56.1577 51.5399 56.3008 50.8027 56.3008 50.0481C56.3008 48.2985 55.6879 46.8093 54.4629 45.5842C53.2378 44.3591 51.7486 43.7454 49.999 43.7454C49.2032 43.7454 48.4663 43.8713 47.7891 44.1223C47.1126 44.3733 46.4938 44.7486 45.9336 45.2493L45.9326 45.2512C45.3235 45.844 44.6024 46.0935 43.7666 46.0022C42.9299 45.9101 42.2357 45.505 41.6826 44.7834L41.6816 44.7825C41.0876 44.0619 40.8762 43.2644 41.0439 42.386C41.1912 41.6146 41.5652 40.9525 42.1689 40.3997L42.4424 40.1692C43.5545 39.3131 44.7484 38.6713 46.0244 38.2434C47.3009 37.8147 48.6261 37.5999 49.999 37.5999C53.495 37.5999 56.4421 38.8116 58.8438 41.2346C61.2458 43.6581 62.4463 46.595 62.4463 50.0481Z" fill="#FF7F00" stroke="#FF7F00" stroke-width="0.104167"/>
<path d="M14.7831 80.6646C14.0463 81.3366 13.9938 82.4786 14.6658 83.2154C15.3378 83.9522 16.4798 84.0047 17.2165 83.3327L14.7831 80.6646ZM48.1367 54.4159C48.1825 53.4198 47.4121 52.5751 46.416 52.5293L30.1831 51.7827C29.187 51.7369 28.3423 52.5073 28.2965 53.5034C28.2507 54.4995 29.0211 55.3442 30.0172 55.39L44.4464 56.0536L43.7828 70.4828C43.737 71.4789 44.5074 72.3236 45.5035 72.3694C46.4996 72.4152 47.3443 71.6448 47.3901 70.6487L48.1367 54.4159ZM15.9998 81.9987L17.2165 83.3327L47.5497 55.667L46.333 54.3329L45.1163 52.9989L14.7831 80.6646L15.9998 81.9987Z" fill="#FF7F00"/>
<path d="M5.40132 60.8331C4.69093 61.5329 4.68233 62.676 5.38212 63.3864C6.08191 64.0968 7.22509 64.1054 7.93549 63.4056L5.40132 60.8331ZM22.8075 48.0134C22.815 47.0163 22.0127 46.2018 21.0155 46.1943L4.76599 46.0721C3.76884 46.0646 2.95441 46.8669 2.94691 47.864C2.93941 48.8612 3.74168 49.6756 4.73883 49.6831L19.1829 49.7918L19.0742 64.2358C19.0667 65.2329 19.869 66.0474 20.8661 66.0549C21.8633 66.0624 22.6777 65.2601 22.6852 64.263L22.8075 48.0134ZM6.66841 62.1194L7.93549 63.4056L22.269 49.2861L21.002 47.9998L19.7349 46.7136L5.40132 60.8331L6.66841 62.1194Z" fill="#FF7F00"/>
<path d="M32.9951 94.8331C32.2847 95.5329 32.2761 96.676 32.9759 97.3864C33.6757 98.0968 34.8188 98.1054 35.5292 97.4056L32.9951 94.8331ZM50.4012 82.0134C50.4087 81.0163 49.6064 80.2018 48.6093 80.1943L32.3597 80.0721C31.3626 80.0646 30.5482 80.8669 30.5407 81.864C30.5332 82.8612 31.3354 83.6756 32.3326 83.6831L46.7766 83.7918L46.668 98.2358C46.6605 99.2329 47.4627 100.047 48.4599 100.055C49.457 100.062 50.2715 99.2601 50.279 98.263L50.4012 82.0134ZM34.2622 96.1194L35.5292 97.4056L49.8628 83.2861L48.5957 81.9998L47.3286 80.7136L32.9951 94.8331L34.2622 96.1194Z" fill="#FF7F00"/>
</g>
</svg>
