<svg width="62" height="50" viewBox="0 0 62 50" fill="none" xmlns="http://www.w3.org/2000/svg">
<g clip-path="url(#clip0_781_1031)">
<path d="M1.82899 45.0744C1.56083 45.0744 1.44394 45.1775 1.44394 45.425V45.5282C1.44394 45.7826 1.52645 45.8651 1.86337 45.9407L3.75424 46.3464C4.86814 46.5802 5.24631 46.9515 5.24631 47.8247V48.2166C5.24631 49.0555 4.66874 49.5162 3.60297 49.5162H0L0.103139 48.7942C0.137518 48.5742 0.247532 48.4848 0.488189 48.4848H3.53421C3.81613 48.4848 3.93989 48.3817 3.93989 48.1273V47.9072C3.93989 47.6391 3.8505 47.5566 3.49296 47.4809L1.66397 47.089C0.53632 46.8483 0.130642 46.4427 0.130642 45.5694V45.3494C0.130642 44.5037 0.708218 44.043 1.77398 44.043H5.04004L4.93002 44.7649C4.89564 44.985 4.78563 45.0744 4.54497 45.0744H1.82211H1.82899Z" fill="white"/>
<path d="M7.36892 49.5162H6.0625V44.043H7.36892V49.5162Z" fill="white"/>
<path d="M12.8654 49.5162H9.93629C8.94616 49.5162 8.46484 49.0486 8.46484 48.1066V44.043H9.77126V48.0104C9.77126 48.3679 9.90878 48.4848 10.3213 48.4848H12.3704C12.611 48.4848 12.721 48.5811 12.7554 48.7942L12.8585 49.5162H12.8654Z" fill="white"/>
<path d="M11.6836 44.043H12.7356C13.0244 44.043 13.1207 44.1049 13.2169 44.3318L14.5508 47.4947L14.764 48.2441H14.8121L15.0322 47.4947L16.3661 44.3318C16.4623 44.1049 16.5586 44.043 16.8474 44.043H17.8719L15.5754 49.1655C15.4378 49.4749 15.3209 49.5574 14.9772 49.5574H14.5783C14.2346 49.5574 14.1245 49.4818 13.9801 49.1655L11.6905 44.043H11.6836Z" fill="white"/>
<path d="M23.4211 44.0421L23.318 44.764C23.2836 44.9841 23.1736 45.0735 22.9329 45.0735H19.8388V46.2149H23.0842L22.9879 46.8956C22.9536 47.1156 22.8435 47.205 22.6098 47.205H19.8319V47.9888C19.8319 48.3464 19.9763 48.4702 20.3751 48.4702H23.0704C23.3111 48.4702 23.4211 48.5664 23.4555 48.7796L23.5655 49.5015H19.9832C18.993 49.5015 18.5117 49.034 18.5117 48.0782V44.0283H23.4142L23.4211 44.0421Z" fill="white"/>
<path d="M27.6896 44.043C28.9823 44.043 29.6355 44.5793 29.6355 45.6794V45.8926C29.6493 46.8896 29.0511 47.3984 27.9578 47.4259H27.8272V47.4947C28.0678 47.4947 28.1847 47.5566 28.3291 47.7284L29.8831 49.5231H28.5216C28.281 49.5231 28.1435 49.4749 28.0128 49.303L26.672 47.7216C26.5551 47.5841 26.5207 47.474 26.5207 47.1784V46.5871H27.6621C28.1297 46.5871 28.3153 46.4014 28.3153 46.0026V45.6588C28.3153 45.2531 28.1159 45.0812 27.6621 45.0812H25.7713V49.5231H24.4648V44.0498H27.6896V44.043Z" fill="white"/>
<path d="M33.6559 44.043C34.9898 44.043 35.6568 44.6205 35.6568 45.7482V46.0576C35.6705 47.1784 34.9898 47.7628 33.6559 47.7628H31.8338V49.5162H30.5273V44.043H33.6559ZM31.8338 45.0744V46.7246H33.6146C34.1441 46.7246 34.3503 46.532 34.3503 46.0782V45.7207C34.3503 45.26 34.1372 45.0744 33.6146 45.0744H31.8338Z" fill="white"/>
<path d="M37.8103 49.5162H36.5039V44.043H37.8103V49.5162Z" fill="white"/>
<path d="M40.4579 45.0744C40.1897 45.0744 40.0728 45.1775 40.0728 45.425V45.5282C40.0728 45.7826 40.1554 45.8651 40.4992 45.9407L42.39 46.3464C43.5039 46.5802 43.8821 46.9515 43.8821 47.8247V48.2166C43.8821 49.0555 43.3045 49.5162 42.2388 49.5162H38.6289L38.732 48.7942C38.7664 48.5742 38.8764 48.4848 39.1171 48.4848H42.1631C42.445 48.4848 42.5688 48.3817 42.5688 48.1273V47.9072C42.5688 47.6391 42.4794 47.5566 42.1219 47.4809L40.2929 47.089C39.1652 46.8483 38.7595 46.4427 38.7595 45.5694V45.3494C38.7595 44.5037 39.3371 44.043 40.4029 44.043H43.6689L43.5589 44.7649C43.5245 44.985 43.4145 45.0744 43.1739 45.0744H40.451H40.4579Z" fill="white"/>
<path d="M44.082 44.043H49.3352L49.2321 44.7649C49.1977 44.985 49.0877 45.0744 48.847 45.0744H47.3618V49.5162H46.0554V45.0744H44.5771C44.3364 45.0744 44.2264 44.9781 44.192 44.7649L44.082 44.043Z" fill="white"/>
<path d="M52.1005 49.5844C50.3127 49.5844 49.5977 48.8418 49.5977 47.4116V46.1396C49.5977 44.7094 50.3127 43.9668 52.1005 43.9668H53.125C54.9127 43.9668 55.6278 44.7094 55.6278 46.1396V47.4116C55.6278 48.8418 54.9127 49.5844 53.125 49.5844H52.1005ZM53.1112 48.5393C54.0464 48.5393 54.3214 48.1955 54.3214 47.446V46.0983C54.3214 45.3489 54.0395 45.0051 53.1112 45.0051H52.1211C51.186 45.0051 50.911 45.3489 50.911 46.0983V47.446C50.911 48.1955 51.1929 48.5393 52.1211 48.5393H53.1112Z" fill="white"/>
<path d="M56.5078 49.5153V44.042H57.6423C58.2887 44.042 58.5362 44.1383 58.7975 44.6402L60.6265 48.1744C60.6815 48.2707 60.709 48.2982 60.7915 48.2982H60.8465L60.709 46.7718V44.0352H62.0017V49.5084H60.8671C60.2139 49.5084 59.9733 49.4121 59.712 48.9102L57.883 45.376C57.8349 45.2797 57.8005 45.2522 57.718 45.2522H57.663L57.8005 46.7786V49.5153H56.5078Z" fill="white"/>
<path fill-rule="evenodd" clip-rule="evenodd" d="M31.0745 22.7409C30.4144 21.8608 29.6718 21.0219 28.888 20.1899C27.0521 21.2832 25.3331 22.5277 23.7448 23.9579C24.6249 24.8793 25.4569 25.8694 26.1857 27.0108C33.3848 38.3698 8.53529 36.8227 21.682 23.6691C31.6314 13.7197 49.0412 10.8799 34.76 25.7938C35.0213 26.3989 35.2413 27.0177 35.4132 27.6503C41.2233 24.4805 47.7279 18.966 47.2604 13.1284C46.7791 7.09133 37.3316 6.45874 29.328 12.984C26.0963 15.6243 23.0228 18.9179 20.6713 22.1358C1.57 48.2986 45.7408 42.3028 31.0607 22.7271L31.0745 22.7409Z" fill="url(#paint0_linear_781_1031)"/>
<path fill-rule="evenodd" clip-rule="evenodd" d="M24.4106 15.2946C16.1458 4.67133 29.2444 2.14788 31.039 9.79388C31.6853 9.39508 32.3523 9.03066 33.0399 8.69374C33.2255 2.07224 24.2043 -2.11518 18.4011 2.12038C11.8758 6.8785 15.0387 15.6109 19.9825 20.369C21.3508 18.5813 22.8291 16.8967 24.4106 15.2877V15.2946Z" fill="url(#paint1_linear_781_1031)"/>
</g>
<defs>
<linearGradient id="paint0_linear_781_1031" x1="11.8013" y1="49.4469" x2="38.0192" y2="13.9741" gradientUnits="userSpaceOnUse">
<stop offset="0.13" stop-color="#FAAF3B"/>
<stop offset="0.15" stop-color="#F9B534"/>
<stop offset="0.19" stop-color="#F9C623"/>
<stop offset="0.22" stop-color="#F9E307"/>
<stop offset="0.23" stop-color="#F9E704"/>
<stop offset="0.3" stop-color="#F7D509"/>
<stop offset="0.55" stop-color="#F1A21A"/>
<stop offset="0.67" stop-color="#EF8F21"/>
<stop offset="0.86" stop-color="#EF8F21"/>
</linearGradient>
<linearGradient id="paint1_linear_781_1031" x1="15.7882" y1="31.5286" x2="22.8154" y2="11.2584" gradientUnits="userSpaceOnUse">
<stop offset="0.09" stop-color="#E55025"/>
<stop offset="0.31" stop-color="#EF8F21"/>
<stop offset="0.42" stop-color="#F6CD0C"/>
<stop offset="0.48" stop-color="#F9E704"/>
<stop offset="0.67" stop-color="#F4C010"/>
<stop offset="0.87" stop-color="#F09C1C"/>
<stop offset="0.98" stop-color="#EF8F21"/>
</linearGradient>
<clipPath id="clip0_781_1031">
<rect width="62" height="49.1696" fill="white" transform="translate(0 0.415039)"/>
</clipPath>
</defs>
</svg>
